<svg width="20" height="20" viewBox="0 0 34 32" fill="000000" xmlns="http://www.w3.org/2000/svg">
<path d="M18 32.625C9.93586 32.625 3.375 26.0529 3.375 17.9754C3.375 13.5844 5.29102 9.46758 8.63156 6.68672C8.78754 6.55609 8.96775 6.45751 9.16188 6.39663C9.356 6.33575 9.56024 6.31376 9.76287 6.33193C9.96551 6.35009 10.1626 6.40805 10.3428 6.50249C10.523 6.59693 10.6828 6.72598 10.813 6.88227C10.9433 7.03856 11.0414 7.21901 11.1019 7.41328C11.1623 7.60755 11.1838 7.81183 11.1651 8.01443C11.1465 8.21702 11.088 8.41395 10.9932 8.59392C10.8983 8.7739 10.7689 8.9334 10.6123 9.06328C7.97906 11.257 6.46875 14.5055 6.46875 17.9754C6.46875 24.3471 11.6416 29.5312 18 29.5312C24.3584 29.5312 29.5312 24.3471 29.5312 17.9754C29.5311 16.2725 29.1537 14.5908 28.4264 13.0511C27.699 11.5114 26.6397 10.1519 25.3245 9.07031C25.1615 8.94312 25.0258 8.78458 24.9252 8.60404C24.8245 8.4235 24.7611 8.22463 24.7387 8.01917C24.7162 7.81372 24.7351 7.60584 24.7943 7.40782C24.8536 7.20981 24.9519 7.02566 25.0834 6.86627C25.215 6.70688 25.3772 6.57547 25.5604 6.47981C25.7436 6.38415 25.9441 6.32617 26.1501 6.3093C26.3561 6.29243 26.5634 6.31701 26.7597 6.38159C26.9561 6.44618 27.1375 6.54945 27.2932 6.68531C28.9605 8.05665 30.3034 9.7803 31.2253 11.7324C32.1472 13.6845 32.6252 15.8166 32.625 17.9754C32.625 26.0529 26.0641 32.625 18 32.625Z" fill="black"/>
<path d="M18 19.125C17.5897 19.125 17.1963 18.962 16.9062 18.6719C16.6161 18.3818 16.4531 17.9884 16.4531 17.5781V4.92188C16.4531 4.51162 16.6161 4.11816 16.9062 3.82807C17.1963 3.53797 17.5897 3.375 18 3.375C18.4103 3.375 18.8037 3.53797 19.0938 3.82807C19.3839 4.11816 19.5469 4.51162 19.5469 4.92188V17.5781C19.5469 17.9884 19.3839 18.3818 19.0938 18.6719C18.8037 18.962 18.4103 19.125 18 19.125Z" fill="black"/>
</svg>
