<svg width="458" height="344" viewBox="0 0 458 344" fill="none" xmlns="http://www.w3.org/2000/svg">
<rect x="0.5" y="0.5" width="457" height="343" rx="3.5" fill="white"/>
<path d="M31.5 47H26.1136V29.5455H31.7386C33.4318 29.5455 34.8807 29.8949 36.0852 30.5938C37.2898 31.2869 38.2131 32.2841 38.8551 33.5852C39.4972 34.8807 39.8182 36.4318 39.8182 38.2386C39.8182 40.0568 39.4943 41.6222 38.8466 42.9347C38.1989 44.2415 37.2557 45.2472 36.017 45.9517C34.7784 46.6506 33.2727 47 31.5 47ZM28.2273 45.125H31.3636C32.8068 45.125 34.0028 44.8466 34.9517 44.2898C35.9006 43.733 36.608 42.9403 37.0739 41.9119C37.5398 40.8835 37.7727 39.6591 37.7727 38.2386C37.7727 36.8295 37.5426 35.6165 37.0824 34.5994C36.6222 33.5767 35.9347 32.7926 35.0199 32.2472C34.1051 31.696 32.9659 31.4205 31.6023 31.4205H28.2273V45.125ZM48.4091 47.2727C47.2273 47.2727 46.1903 46.9915 45.2983 46.429C44.4119 45.8665 43.7188 45.0795 43.2188 44.0682C42.7244 43.0568 42.4773 41.875 42.4773 40.5227C42.4773 39.1591 42.7244 37.9687 43.2188 36.9517C43.7188 35.9347 44.4119 35.1449 45.2983 34.5824C46.1903 34.0199 47.2273 33.7386 48.4091 33.7386C49.5909 33.7386 50.625 34.0199 51.5114 34.5824C52.4034 35.1449 53.0966 35.9347 53.5909 36.9517C54.0909 37.9687 54.3409 39.1591 54.3409 40.5227C54.3409 41.875 54.0909 43.0568 53.5909 44.0682C53.0966 45.0795 52.4034 45.8665 51.5114 46.429C50.625 46.9915 49.5909 47.2727 48.4091 47.2727ZM48.4091 45.4659C49.3068 45.4659 50.0455 45.2358 50.625 44.7756C51.2045 44.3153 51.6335 43.7102 51.9119 42.9602C52.1903 42.2102 52.3295 41.3977 52.3295 40.5227C52.3295 39.6477 52.1903 38.8324 51.9119 38.0767C51.6335 37.321 51.2045 36.7102 50.625 36.2443C50.0455 35.7784 49.3068 35.5455 48.4091 35.5455C47.5114 35.5455 46.7727 35.7784 46.1932 36.2443C45.6136 36.7102 45.1847 37.321 44.9062 38.0767C44.6278 38.8324 44.4886 39.6477 44.4886 40.5227C44.4886 41.3977 44.6278 42.2102 44.9062 42.9602C45.1847 43.7102 45.6136 44.3153 46.1932 44.7756C46.7727 45.2358 47.5114 45.4659 48.4091 45.4659ZM57.4112 47V33.9091H59.3544V35.9545H59.5249C59.7976 35.2557 60.2379 34.7131 60.8459 34.3267C61.4538 33.9347 62.1839 33.7386 63.0362 33.7386C63.8999 33.7386 64.6186 33.9347 65.1925 34.3267C65.772 34.7131 66.2237 35.2557 66.5476 35.9545H66.6839C67.0192 35.2784 67.522 34.7415 68.1925 34.3438C68.8629 33.9403 69.6669 33.7386 70.6044 33.7386C71.7749 33.7386 72.7322 34.1051 73.4766 34.8381C74.2209 35.5653 74.593 36.6989 74.593 38.2386V47H72.5817V38.2386C72.5817 37.2727 72.3175 36.5824 71.7891 36.1676C71.2607 35.7528 70.6385 35.5455 69.9226 35.5455C69.0021 35.5455 68.2891 35.8239 67.7834 36.3807C67.2777 36.9318 67.0249 37.6307 67.0249 38.4773V47H64.9794V38.0341C64.9794 37.2898 64.7379 36.6903 64.255 36.2358C63.772 35.7756 63.1499 35.5455 62.3885 35.5455C61.8658 35.5455 61.3771 35.6847 60.9226 35.9631C60.4737 36.2415 60.1101 36.6278 59.8317 37.1222C59.5589 37.6108 59.4226 38.1761 59.4226 38.8182V47H57.4112Z" fill="#595959"/>
<path d="M95.1136 47V29.5455H97.2273V45.125H105.341V47H95.1136ZM116.591 41.6477V33.9091H118.602V47H116.591V44.7841H116.455C116.148 45.4489 115.67 46.0142 115.023 46.4801C114.375 46.9403 113.557 47.1705 112.568 47.1705C111.75 47.1705 111.023 46.9915 110.386 46.6335C109.75 46.2699 109.25 45.7244 108.886 44.9972C108.523 44.2642 108.341 43.3409 108.341 42.2273V33.9091H110.352V42.0909C110.352 43.0455 110.619 43.8068 111.153 44.375C111.693 44.9432 112.381 45.2273 113.216 45.2273C113.716 45.2273 114.224 45.0994 114.741 44.8438C115.264 44.5881 115.702 44.196 116.054 43.6676C116.412 43.1392 116.591 42.4659 116.591 41.6477ZM124.298 39.125V47H122.286V33.9091H124.229V35.9545H124.4C124.707 35.2898 125.173 34.7557 125.798 34.3523C126.423 33.9432 127.229 33.7386 128.218 33.7386C129.104 33.7386 129.88 33.9205 130.545 34.2841C131.21 34.642 131.727 35.1875 132.096 35.9205C132.465 36.6477 132.65 37.5682 132.65 38.6818V47H130.638V38.8182C130.638 37.7898 130.371 36.9886 129.837 36.4148C129.303 35.8352 128.57 35.5455 127.638 35.5455C126.996 35.5455 126.423 35.6847 125.917 35.9631C125.417 36.2415 125.022 36.6477 124.732 37.1818C124.442 37.7159 124.298 38.3636 124.298 39.125Z" fill="#595959"/>
<path d="M153.114 29.5455H155.636L161.568 44.0341H161.773L167.705 29.5455H170.227V47H168.25V33.7386H168.08L162.625 47H160.716L155.261 33.7386H155.091V47H153.114V29.5455ZM178.045 47.3068C177.215 47.3068 176.462 47.1506 175.786 46.8381C175.11 46.5199 174.573 46.0625 174.175 45.4659C173.778 44.8636 173.579 44.1364 173.579 43.2841C173.579 42.5341 173.727 41.9261 174.022 41.4602C174.317 40.9886 174.712 40.6193 175.207 40.3523C175.701 40.0852 176.246 39.8864 176.843 39.7557C177.445 39.6193 178.05 39.5114 178.658 39.4318C179.454 39.3295 180.099 39.2528 180.593 39.2017C181.093 39.1449 181.457 39.0511 181.684 38.9205C181.917 38.7898 182.033 38.5625 182.033 38.2386V38.1705C182.033 37.3295 181.803 36.6761 181.343 36.2102C180.888 35.7443 180.198 35.5114 179.272 35.5114C178.312 35.5114 177.559 35.7216 177.013 36.142C176.468 36.5625 176.085 37.0114 175.863 37.4886L173.954 36.8068C174.295 36.0114 174.749 35.392 175.317 34.9489C175.891 34.5 176.516 34.1875 177.192 34.0114C177.874 33.8295 178.545 33.7386 179.204 33.7386C179.624 33.7386 180.107 33.7898 180.653 33.892C181.204 33.9886 181.735 34.1903 182.246 34.4972C182.763 34.804 183.192 35.267 183.533 35.8864C183.874 36.5057 184.045 37.3352 184.045 38.375V47H182.033V45.2273H181.931C181.795 45.5114 181.567 45.8153 181.249 46.1392C180.931 46.4631 180.508 46.7386 179.979 46.9659C179.451 47.1932 178.806 47.3068 178.045 47.3068ZM178.352 45.5C179.147 45.5 179.817 45.3438 180.363 45.0312C180.914 44.7188 181.329 44.3153 181.607 43.821C181.891 43.3267 182.033 42.8068 182.033 42.2614V40.4205C181.948 40.5227 181.761 40.6165 181.471 40.7017C181.187 40.7812 180.857 40.8523 180.482 40.9148C180.113 40.9716 179.752 41.0227 179.4 41.0682C179.053 41.108 178.772 41.142 178.556 41.1705C178.033 41.2386 177.545 41.3494 177.09 41.5028C176.641 41.6506 176.278 41.875 175.999 42.1761C175.727 42.4716 175.59 42.875 175.59 43.3864C175.59 44.0852 175.849 44.6136 176.366 44.9716C176.888 45.3239 177.55 45.5 178.352 45.5ZM187.716 47V33.9091H189.659V35.8864H189.795C190.034 35.2386 190.466 34.7131 191.091 34.3097C191.716 33.9062 192.42 33.7045 193.205 33.7045C193.352 33.7045 193.537 33.7074 193.759 33.7131C193.98 33.7187 194.148 33.7273 194.261 33.7386V35.7841C194.193 35.767 194.037 35.7415 193.793 35.7074C193.554 35.6676 193.301 35.6477 193.034 35.6477C192.398 35.6477 191.83 35.7812 191.33 36.0483C190.835 36.3097 190.443 36.6733 190.153 37.1392C189.869 37.5994 189.727 38.125 189.727 38.7159V47H187.716Z" fill="#595959"/>
<path d="M213.114 29.5455H215.636L221.568 44.0341H221.773L227.705 29.5455H230.227V47H228.25V33.7386H228.08L222.625 47H220.716L215.261 33.7386H215.091V47H213.114V29.5455ZM234.192 47V33.9091H236.204V47H234.192ZM235.215 31.7273C234.823 31.7273 234.485 31.5938 234.201 31.3267C233.923 31.0597 233.783 30.7386 233.783 30.3636C233.783 29.9886 233.923 29.6676 234.201 29.4006C234.485 29.1335 234.823 29 235.215 29C235.607 29 235.942 29.1335 236.221 29.4006C236.505 29.6676 236.647 29.9886 236.647 30.3636C236.647 30.7386 236.505 31.0597 236.221 31.3267C235.942 31.5938 235.607 31.7273 235.215 31.7273ZM245.376 47.2727C244.115 47.2727 243.027 46.9943 242.112 46.4375C241.203 45.875 240.501 45.0909 240.007 44.0852C239.518 43.0739 239.274 41.8977 239.274 40.5568C239.274 39.2159 239.518 38.0341 240.007 37.0114C240.501 35.983 241.189 35.1818 242.07 34.608C242.956 34.0284 243.99 33.7386 245.172 33.7386C245.854 33.7386 246.527 33.8523 247.192 34.0795C247.857 34.3068 248.462 34.6761 249.007 35.1875C249.553 35.6932 249.987 36.3636 250.311 37.1989C250.635 38.0341 250.797 39.0625 250.797 40.2841V41.1364H240.706V39.3977H248.751C248.751 38.6591 248.604 38 248.308 37.4205C248.018 36.8409 247.604 36.3835 247.064 36.0483C246.53 35.7131 245.899 35.5455 245.172 35.5455C244.371 35.5455 243.678 35.7443 243.092 36.142C242.513 36.5341 242.067 37.0455 241.754 37.6761C241.442 38.3068 241.286 38.983 241.286 39.7045V40.8636C241.286 41.8523 241.456 42.6903 241.797 43.3778C242.143 44.0597 242.624 44.5795 243.237 44.9375C243.851 45.2898 244.564 45.4659 245.376 45.4659C245.905 45.4659 246.382 45.392 246.808 45.2443C247.24 45.0909 247.612 44.8636 247.925 44.5625C248.237 44.2557 248.479 43.875 248.649 43.4205L250.592 43.9659C250.388 44.625 250.044 45.2045 249.561 45.7045C249.078 46.1989 248.482 46.5852 247.771 46.8636C247.061 47.1364 246.263 47.2727 245.376 47.2727ZM253.857 47V33.9091H255.8V35.8864H255.936C256.175 35.2386 256.607 34.7131 257.232 34.3097C257.857 33.9062 258.561 33.7045 259.345 33.7045C259.493 33.7045 259.678 33.7074 259.899 33.7131C260.121 33.7187 260.288 33.7273 260.402 33.7386V35.7841C260.334 35.767 260.178 35.7415 259.933 35.7074C259.695 35.6676 259.442 35.6477 259.175 35.6477C258.538 35.6477 257.97 35.7812 257.47 36.0483C256.976 36.3097 256.584 36.6733 256.294 37.1392C256.01 37.5994 255.868 38.125 255.868 38.7159V47H253.857Z" fill="#595959"/>
<path d="M285.795 29.5455H287.909V42.0227C287.909 43.1364 287.705 44.0824 287.295 44.8608C286.886 45.6392 286.31 46.2301 285.565 46.6335C284.821 47.0369 283.943 47.2386 282.932 47.2386C281.977 47.2386 281.128 47.0653 280.384 46.7188C279.639 46.3665 279.054 45.8665 278.628 45.2188C278.202 44.571 277.989 43.8011 277.989 42.9091H280.068C280.068 43.4034 280.19 43.8352 280.435 44.2045C280.685 44.5682 281.026 44.8523 281.457 45.0568C281.889 45.2614 282.381 45.3636 282.932 45.3636C283.54 45.3636 284.057 45.2358 284.483 44.9801C284.909 44.7244 285.233 44.3494 285.455 43.8551C285.682 43.3551 285.795 42.7443 285.795 42.0227V29.5455ZM300.122 41.6477V33.9091H302.134V47H300.122V44.7841H299.986C299.679 45.4489 299.202 46.0142 298.554 46.4801C297.906 46.9403 297.088 47.1705 296.099 47.1705C295.281 47.1705 294.554 46.9915 293.918 46.6335C293.281 46.2699 292.781 45.7244 292.418 44.9972C292.054 44.2642 291.872 43.3409 291.872 42.2273V33.9091H293.884V42.0909C293.884 43.0455 294.151 43.8068 294.685 44.375C295.224 44.9432 295.912 45.2273 296.747 45.2273C297.247 45.2273 297.756 45.0994 298.273 44.8438C298.795 44.5881 299.233 44.196 299.585 43.6676C299.943 43.1392 300.122 42.4659 300.122 41.6477ZM311.306 47.2727C310.045 47.2727 308.957 46.9943 308.042 46.4375C307.133 45.875 306.431 45.0909 305.937 44.0852C305.448 43.0739 305.204 41.8977 305.204 40.5568C305.204 39.2159 305.448 38.0341 305.937 37.0114C306.431 35.983 307.119 35.1818 307.999 34.608C308.886 34.0284 309.92 33.7386 311.102 33.7386C311.783 33.7386 312.457 33.8523 313.121 34.0795C313.786 34.3068 314.391 34.6761 314.937 35.1875C315.482 35.6932 315.917 36.3636 316.241 37.1989C316.565 38.0341 316.727 39.0625 316.727 40.2841V41.1364H306.636V39.3977H314.681C314.681 38.6591 314.533 38 314.238 37.4205C313.948 36.8409 313.533 36.3835 312.994 36.0483C312.46 35.7131 311.829 35.5455 311.102 35.5455C310.3 35.5455 309.607 35.7443 309.022 36.142C308.442 36.5341 307.996 37.0455 307.684 37.6761C307.371 38.3068 307.215 38.983 307.215 39.7045V40.8636C307.215 41.8523 307.386 42.6903 307.727 43.3778C308.073 44.0597 308.553 44.5795 309.167 44.9375C309.781 45.2898 310.494 45.4659 311.306 45.4659C311.835 45.4659 312.312 45.392 312.738 45.2443C313.17 45.0909 313.542 44.8636 313.854 44.5625C314.167 44.2557 314.408 43.875 314.579 43.4205L316.522 43.9659C316.317 44.625 315.974 45.2045 315.491 45.7045C315.008 46.1989 314.411 46.5852 313.701 46.8636C312.991 47.1364 312.192 47.2727 311.306 47.2727Z" fill="#595959"/>
<path d="M336.83 29.5455L342.011 44.2386H342.216L347.398 29.5455H349.614L343.205 47H341.023L334.614 29.5455H336.83ZM352.06 47V33.9091H354.071V47H352.06ZM353.082 31.7273C352.69 31.7273 352.352 31.5938 352.068 31.3267C351.79 31.0597 351.651 30.7386 351.651 30.3636C351.651 29.9886 351.79 29.6676 352.068 29.4006C352.352 29.1335 352.69 29 353.082 29C353.474 29 353.81 29.1335 354.088 29.4006C354.372 29.6676 354.514 29.9886 354.514 30.3636C354.514 30.7386 354.372 31.0597 354.088 31.3267C353.81 31.5938 353.474 31.7273 353.082 31.7273ZM363.244 47.2727C361.982 47.2727 360.894 46.9943 359.979 46.4375C359.07 45.875 358.369 45.0909 357.874 44.0852C357.386 43.0739 357.141 41.8977 357.141 40.5568C357.141 39.2159 357.386 38.0341 357.874 37.0114C358.369 35.983 359.056 35.1818 359.937 34.608C360.823 34.0284 361.857 33.7386 363.039 33.7386C363.721 33.7386 364.394 33.8523 365.059 34.0795C365.724 34.3068 366.329 34.6761 366.874 35.1875C367.42 35.6932 367.854 36.3636 368.178 37.1989C368.502 38.0341 368.664 39.0625 368.664 40.2841V41.1364H358.573V39.3977H366.619C366.619 38.6591 366.471 38 366.175 37.4205C365.886 36.8409 365.471 36.3835 364.931 36.0483C364.397 35.7131 363.766 35.5455 363.039 35.5455C362.238 35.5455 361.545 35.7443 360.96 36.142C360.38 36.5341 359.934 37.0455 359.621 37.6761C359.309 38.3068 359.153 38.983 359.153 39.7045V40.8636C359.153 41.8523 359.323 42.6903 359.664 43.3778C360.011 44.0597 360.491 44.5795 361.104 44.9375C361.718 45.2898 362.431 45.4659 363.244 45.4659C363.772 45.4659 364.249 45.392 364.675 45.2443C365.107 45.0909 365.479 44.8636 365.792 44.5625C366.104 44.2557 366.346 43.875 366.516 43.4205L368.46 43.9659C368.255 44.625 367.911 45.2045 367.428 45.7045C366.945 46.1989 366.349 46.5852 365.638 46.8636C364.928 47.1364 364.13 47.2727 363.244 47.2727Z" fill="#595959"/>
<path d="M397.659 33.9091C397.557 33.0455 397.142 32.375 396.415 31.8977C395.688 31.4205 394.795 31.1818 393.739 31.1818C392.966 31.1818 392.29 31.3068 391.71 31.5568C391.136 31.8068 390.688 32.1506 390.364 32.5881C390.045 33.0256 389.886 33.5227 389.886 34.0795C389.886 34.5455 389.997 34.946 390.219 35.2812C390.446 35.6108 390.736 35.8864 391.088 36.108C391.44 36.3239 391.81 36.5028 392.196 36.6449C392.582 36.7812 392.938 36.892 393.261 36.9773L395.034 37.4545C395.489 37.5739 395.994 37.7386 396.551 37.9489C397.114 38.1591 397.651 38.446 398.162 38.8097C398.679 39.1676 399.105 39.6278 399.44 40.1903C399.776 40.7528 399.943 41.4432 399.943 42.2614C399.943 43.2045 399.696 44.0568 399.202 44.8182C398.713 45.5795 397.997 46.1847 397.054 46.6335C396.116 47.0824 394.977 47.3068 393.636 47.3068C392.386 47.3068 391.304 47.1051 390.389 46.7017C389.48 46.2983 388.764 45.7358 388.241 45.0142C387.724 44.2926 387.432 43.4545 387.364 42.5H389.545C389.602 43.1591 389.824 43.7045 390.21 44.1364C390.602 44.5625 391.097 44.8807 391.693 45.0909C392.295 45.2955 392.943 45.3977 393.636 45.3977C394.443 45.3977 395.168 45.267 395.81 45.0057C396.452 44.7386 396.96 44.3693 397.335 43.8977C397.71 43.4205 397.898 42.8636 397.898 42.2273C397.898 41.6477 397.736 41.1761 397.412 40.8125C397.088 40.4489 396.662 40.1534 396.134 39.9261C395.605 39.6989 395.034 39.5 394.42 39.3295L392.273 38.7159C390.909 38.3239 389.83 37.7642 389.034 37.0369C388.239 36.3097 387.841 35.358 387.841 34.1818C387.841 33.2045 388.105 32.3523 388.634 31.625C389.168 30.892 389.884 30.3239 390.781 29.9205C391.685 29.5114 392.693 29.3068 393.807 29.3068C394.932 29.3068 395.932 29.5085 396.807 29.9119C397.682 30.3097 398.375 30.8551 398.886 31.5483C399.403 32.2415 399.676 33.0284 399.705 33.9091H397.659ZM406.998 47.3068C406.168 47.3068 405.415 47.1506 404.739 46.8381C404.063 46.5199 403.526 46.0625 403.129 45.4659C402.731 44.8636 402.532 44.1364 402.532 43.2841C402.532 42.5341 402.68 41.9261 402.975 41.4602C403.271 40.9886 403.665 40.6193 404.16 40.3523C404.654 40.0852 405.2 39.8864 405.796 39.7557C406.398 39.6193 407.004 39.5114 407.612 39.4318C408.407 39.3295 409.052 39.2528 409.546 39.2017C410.046 39.1449 410.41 39.0511 410.637 38.9205C410.87 38.7898 410.987 38.5625 410.987 38.2386V38.1705C410.987 37.3295 410.756 36.6761 410.296 36.2102C409.842 35.7443 409.151 35.5114 408.225 35.5114C407.265 35.5114 406.512 35.7216 405.967 36.142C405.421 36.5625 405.038 37.0114 404.816 37.4886L402.907 36.8068C403.248 36.0114 403.702 35.392 404.271 34.9489C404.844 34.5 405.469 34.1875 406.146 34.0114C406.827 33.8295 407.498 33.7386 408.157 33.7386C408.577 33.7386 409.06 33.7898 409.606 33.892C410.157 33.9886 410.688 34.1903 411.2 34.4972C411.717 34.804 412.146 35.267 412.487 35.8864C412.827 36.5057 412.998 37.3352 412.998 38.375V47H410.987V45.2273H410.884C410.748 45.5114 410.521 45.8153 410.202 46.1392C409.884 46.4631 409.461 46.7386 408.933 46.9659C408.404 47.1932 407.759 47.3068 406.998 47.3068ZM407.305 45.5C408.1 45.5 408.771 45.3438 409.316 45.0312C409.867 44.7188 410.282 44.3153 410.56 43.821C410.844 43.3267 410.987 42.8068 410.987 42.2614V40.4205C410.901 40.5227 410.714 40.6165 410.424 40.7017C410.14 40.7812 409.81 40.8523 409.435 40.9148C409.066 40.9716 408.705 41.0227 408.353 41.0682C408.006 41.108 407.725 41.142 407.509 41.1705C406.987 41.2386 406.498 41.3494 406.043 41.5028C405.594 41.6506 405.231 41.875 404.952 42.1761C404.68 42.4716 404.543 42.875 404.543 43.3864C404.543 44.0852 404.802 44.6136 405.319 44.9716C405.842 45.3239 406.504 45.5 407.305 45.5ZM416.942 47V29.5455H418.953V35.9886H419.124C419.271 35.7614 419.476 35.4716 419.737 35.1193C420.004 34.7614 420.385 34.4432 420.879 34.1648C421.379 33.8807 422.055 33.7386 422.908 33.7386C424.01 33.7386 424.982 34.0142 425.822 34.5653C426.663 35.1165 427.32 35.8977 427.791 36.9091C428.263 37.9205 428.499 39.1136 428.499 40.4886C428.499 41.875 428.263 43.0767 427.791 44.0938C427.32 45.1051 426.666 45.8892 425.831 46.446C424.996 46.9972 424.033 47.2727 422.942 47.2727C422.101 47.2727 421.428 47.1335 420.922 46.8551C420.416 46.571 420.027 46.25 419.754 45.892C419.482 45.5284 419.271 45.2273 419.124 44.9886H418.885V47H416.942ZM418.919 40.4545C418.919 41.4432 419.064 42.3153 419.354 43.071C419.643 43.821 420.067 44.4091 420.624 44.8352C421.18 45.2557 421.862 45.4659 422.669 45.4659C423.51 45.4659 424.212 45.2443 424.774 44.8011C425.342 44.3523 425.768 43.75 426.053 42.9943C426.342 42.233 426.487 41.3864 426.487 40.4545C426.487 39.5341 426.345 38.7045 426.061 37.9659C425.783 37.2216 425.359 36.6335 424.791 36.2017C424.229 35.7642 423.521 35.5455 422.669 35.5455C421.851 35.5455 421.163 35.7528 420.607 36.1676C420.05 36.5767 419.629 37.1506 419.345 37.8892C419.061 38.6222 418.919 39.4773 418.919 40.4545Z" fill="#595959"/>
<path d="M111.943 74.5455V92H109.83V76.7614H109.727L105.466 79.5909V77.4432L109.83 74.5455H111.943Z" fill="black"/>
<path d="M166.307 92V90.4659L172.068 84.1591C172.744 83.4205 173.301 82.7784 173.739 82.233C174.176 81.6818 174.5 81.1648 174.71 80.6818C174.926 80.1932 175.034 79.6818 175.034 79.1477C175.034 78.5341 174.886 78.0028 174.591 77.554C174.301 77.1051 173.903 76.7585 173.398 76.5142C172.892 76.2699 172.324 76.1477 171.693 76.1477C171.023 76.1477 170.438 76.2869 169.938 76.5653C169.443 76.8381 169.06 77.2216 168.787 77.7159C168.52 78.2102 168.386 78.7898 168.386 79.4545H166.375C166.375 78.4318 166.611 77.5341 167.082 76.7614C167.554 75.9886 168.196 75.3864 169.009 74.9545C169.827 74.5227 170.744 74.3068 171.761 74.3068C172.784 74.3068 173.69 74.5227 174.48 74.9545C175.27 75.3864 175.889 75.9687 176.338 76.7017C176.787 77.4347 177.011 78.25 177.011 79.1477C177.011 79.7898 176.895 80.4176 176.662 81.0312C176.435 81.6392 176.037 82.3182 175.469 83.0682C174.906 83.8125 174.125 84.7216 173.125 85.7955L169.205 89.9886V90.125H177.318V92H166.307Z" fill="black"/>
<path d="M233.705 92.2386C232.58 92.2386 231.577 92.0455 230.696 91.6591C229.821 91.2727 229.125 90.7358 228.608 90.0483C228.097 89.3551 227.818 88.5511 227.773 87.6364H229.92C229.966 88.1989 230.159 88.6847 230.5 89.0938C230.841 89.4972 231.287 89.8097 231.838 90.0312C232.389 90.2528 233 90.3636 233.67 90.3636C234.42 90.3636 235.085 90.233 235.665 89.9716C236.244 89.7102 236.699 89.3466 237.028 88.8807C237.358 88.4148 237.523 87.875 237.523 87.2614C237.523 86.6193 237.364 86.054 237.045 85.5653C236.727 85.071 236.261 84.6847 235.648 84.4062C235.034 84.1278 234.284 83.9886 233.398 83.9886H232V82.1136H233.398C234.091 82.1136 234.699 81.9886 235.222 81.7386C235.75 81.4886 236.162 81.1364 236.457 80.6818C236.759 80.2273 236.909 79.6932 236.909 79.0795C236.909 78.4886 236.778 77.9744 236.517 77.5369C236.256 77.0994 235.886 76.7585 235.409 76.5142C234.938 76.2699 234.381 76.1477 233.739 76.1477C233.136 76.1477 232.568 76.2585 232.034 76.4801C231.506 76.696 231.074 77.0114 230.739 77.4261C230.403 77.8352 230.222 78.3295 230.193 78.9091H228.148C228.182 77.9943 228.457 77.1932 228.974 76.5057C229.491 75.8125 230.168 75.2727 231.003 74.8864C231.844 74.5 232.767 74.3068 233.773 74.3068C234.852 74.3068 235.778 74.5256 236.551 74.9631C237.324 75.3949 237.918 75.9659 238.332 76.6761C238.747 77.3864 238.955 78.1534 238.955 78.9773C238.955 79.9602 238.696 80.7983 238.179 81.4915C237.668 82.1847 236.972 82.6648 236.091 82.9318V83.0682C237.193 83.25 238.054 83.7187 238.673 84.4744C239.293 85.2244 239.602 86.1534 239.602 87.2614C239.602 88.2102 239.344 89.0625 238.827 89.8182C238.315 90.5682 237.616 91.1591 236.73 91.5909C235.844 92.0227 234.835 92.2386 233.705 92.2386Z" fill="black"/>
<path d="M289.398 88.4205V86.6818L297.068 74.5455H298.33V77.2386H297.477L291.682 86.4091V86.5455H302.011V88.4205H289.398ZM297.614 92V87.892V87.0824V74.5455H299.625V92H297.614Z" fill="black"/>
<path d="M351.261 92.2386C350.261 92.2386 349.361 92.0398 348.56 91.642C347.759 91.2443 347.116 90.6989 346.634 90.0057C346.151 89.3125 345.886 88.5227 345.841 87.6364H347.886C347.966 88.4261 348.324 89.0795 348.96 89.5966C349.602 90.108 350.369 90.3636 351.261 90.3636C351.977 90.3636 352.614 90.196 353.17 89.8608C353.733 89.5256 354.173 89.0653 354.491 88.4801C354.815 87.8892 354.977 87.2216 354.977 86.4773C354.977 85.7159 354.81 85.0369 354.474 84.4403C354.145 83.8381 353.69 83.3636 353.111 83.017C352.531 82.6705 351.869 82.4943 351.125 82.4886C350.591 82.483 350.043 82.5653 349.48 82.7358C348.918 82.9006 348.455 83.1136 348.091 83.375L346.114 83.1364L347.17 74.5455H356.239V76.4205H348.943L348.33 81.5682H348.432C348.79 81.2841 349.239 81.0483 349.778 80.8608C350.318 80.6733 350.881 80.5795 351.466 80.5795C352.534 80.5795 353.486 80.8352 354.321 81.3466C355.162 81.8523 355.821 82.5455 356.298 83.4261C356.781 84.3068 357.023 85.3125 357.023 86.4432C357.023 87.5568 356.773 88.5511 356.273 89.4261C355.778 90.2955 355.097 90.983 354.227 91.4886C353.358 91.9886 352.369 92.2386 351.261 92.2386Z" fill="black"/>
<path d="M413.602 92.2386C412.886 92.2273 412.17 92.0909 411.455 91.8295C410.739 91.5682 410.085 91.1278 409.494 90.5085C408.903 89.8835 408.429 89.0398 408.071 87.9773C407.713 86.9091 407.534 85.5682 407.534 83.9545C407.534 82.4091 407.679 81.0398 407.969 79.8466C408.259 78.6477 408.679 77.6392 409.23 76.821C409.781 75.9972 410.446 75.3722 411.224 74.946C412.009 74.5199 412.892 74.3068 413.875 74.3068C414.852 74.3068 415.722 74.5028 416.483 74.8949C417.25 75.2812 417.875 75.821 418.358 76.5142C418.841 77.2074 419.153 78.0057 419.295 78.9091H417.216C417.023 78.125 416.648 77.4744 416.091 76.9574C415.534 76.4403 414.795 76.1818 413.875 76.1818C412.523 76.1818 411.457 76.7699 410.679 77.946C409.906 79.1222 409.517 80.7727 409.511 82.8977H409.648C409.966 82.4148 410.344 82.0028 410.781 81.6619C411.224 81.3153 411.713 81.0483 412.247 80.8608C412.781 80.6733 413.347 80.5795 413.943 80.5795C414.943 80.5795 415.858 80.8295 416.688 81.3295C417.517 81.8239 418.182 82.5085 418.682 83.3835C419.182 84.2528 419.432 85.25 419.432 86.375C419.432 87.4545 419.19 88.4432 418.707 89.3409C418.224 90.233 417.545 90.9432 416.67 91.4716C415.801 91.9943 414.778 92.25 413.602 92.2386ZM413.602 90.3636C414.318 90.3636 414.96 90.1847 415.528 89.8267C416.102 89.4687 416.554 88.9886 416.884 88.3864C417.219 87.7841 417.386 87.1136 417.386 86.375C417.386 85.6534 417.224 84.9972 416.901 84.4062C416.582 83.8097 416.142 83.3352 415.58 82.983C415.023 82.6307 414.386 82.4545 413.67 82.4545C413.131 82.4545 412.628 82.5625 412.162 82.7784C411.696 82.9886 411.287 83.2784 410.935 83.6477C410.588 84.017 410.315 84.4403 410.116 84.9176C409.918 85.3892 409.818 85.8864 409.818 86.4091C409.818 87.1023 409.98 87.75 410.304 88.3523C410.634 88.9545 411.082 89.4403 411.651 89.8097C412.224 90.179 412.875 90.3636 413.602 90.3636Z" fill="black"/>
<path d="M43.3523 147L51.1591 131.557V131.42H42.1591V129.545H53.3409V131.523L45.5682 147H43.3523Z" fill="black"/>
<path d="M109.898 147.239C108.727 147.239 107.693 147.031 106.795 146.616C105.903 146.196 105.207 145.619 104.707 144.886C104.207 144.148 103.96 143.307 103.966 142.364C103.96 141.625 104.105 140.943 104.401 140.318C104.696 139.687 105.099 139.162 105.611 138.741C106.128 138.315 106.705 138.045 107.341 137.932V137.83C106.506 137.614 105.841 137.145 105.347 136.423C104.852 135.696 104.608 134.869 104.614 133.943C104.608 133.057 104.832 132.264 105.287 131.565C105.741 130.866 106.366 130.315 107.162 129.912C107.963 129.509 108.875 129.307 109.898 129.307C110.909 129.307 111.813 129.509 112.608 129.912C113.403 130.315 114.028 130.866 114.483 131.565C114.943 132.264 115.176 133.057 115.182 133.943C115.176 134.869 114.923 135.696 114.423 136.423C113.929 137.145 113.273 137.614 112.455 137.83V137.932C113.085 138.045 113.653 138.315 114.159 138.741C114.665 139.162 115.068 139.687 115.369 140.318C115.67 140.943 115.824 141.625 115.83 142.364C115.824 143.307 115.568 144.148 115.062 144.886C114.562 145.619 113.866 146.196 112.974 146.616C112.088 147.031 111.063 147.239 109.898 147.239ZM109.898 145.364C110.688 145.364 111.369 145.236 111.943 144.98C112.517 144.724 112.96 144.364 113.273 143.898C113.585 143.432 113.744 142.886 113.75 142.261C113.744 141.602 113.574 141.02 113.239 140.514C112.903 140.009 112.446 139.611 111.866 139.321C111.293 139.031 110.636 138.886 109.898 138.886C109.153 138.886 108.489 139.031 107.903 139.321C107.324 139.611 106.866 140.009 106.531 140.514C106.202 141.02 106.04 141.602 106.045 142.261C106.04 142.886 106.19 143.432 106.497 143.898C106.81 144.364 107.256 144.724 107.835 144.98C108.415 145.236 109.102 145.364 109.898 145.364ZM109.898 137.08C110.523 137.08 111.077 136.955 111.56 136.705C112.048 136.455 112.432 136.105 112.71 135.656C112.989 135.207 113.131 134.682 113.136 134.08C113.131 133.489 112.991 132.974 112.719 132.537C112.446 132.094 112.068 131.753 111.585 131.514C111.102 131.27 110.54 131.148 109.898 131.148C109.244 131.148 108.673 131.27 108.185 131.514C107.696 131.753 107.318 132.094 107.051 132.537C106.784 132.974 106.653 133.489 106.659 134.08C106.653 134.682 106.787 135.207 107.06 135.656C107.338 136.105 107.722 136.455 108.21 136.705C108.699 136.955 109.261 137.08 109.898 137.08Z" fill="black"/>
<path d="M171.864 129.307C172.58 129.312 173.295 129.449 174.011 129.716C174.727 129.983 175.381 130.426 175.972 131.045C176.563 131.659 177.037 132.497 177.395 133.56C177.753 134.622 177.932 135.955 177.932 137.557C177.932 139.108 177.784 140.486 177.489 141.69C177.199 142.889 176.778 143.901 176.227 144.724C175.682 145.548 175.017 146.173 174.233 146.599C173.455 147.026 172.574 147.239 171.591 147.239C170.614 147.239 169.741 147.045 168.974 146.659C168.213 146.267 167.588 145.724 167.099 145.031C166.616 144.332 166.307 143.523 166.17 142.602H168.25C168.438 143.403 168.81 144.065 169.366 144.588C169.929 145.105 170.67 145.364 171.591 145.364C172.938 145.364 174 144.776 174.778 143.599C175.563 142.423 175.955 140.761 175.955 138.614H175.818C175.5 139.091 175.122 139.503 174.685 139.849C174.247 140.196 173.761 140.463 173.227 140.651C172.693 140.838 172.125 140.932 171.523 140.932C170.523 140.932 169.605 140.685 168.77 140.19C167.94 139.69 167.276 139.006 166.776 138.136C166.281 137.261 166.034 136.261 166.034 135.136C166.034 134.068 166.273 133.091 166.75 132.205C167.233 131.312 167.909 130.602 168.778 130.074C169.653 129.545 170.682 129.29 171.864 129.307ZM171.864 131.182C171.148 131.182 170.503 131.361 169.929 131.719C169.361 132.071 168.909 132.548 168.574 133.151C168.244 133.747 168.08 134.409 168.08 135.136C168.08 135.864 168.239 136.526 168.557 137.122C168.881 137.713 169.321 138.185 169.878 138.537C170.44 138.884 171.08 139.057 171.795 139.057C172.335 139.057 172.838 138.952 173.304 138.741C173.77 138.526 174.176 138.233 174.523 137.864C174.875 137.489 175.151 137.065 175.349 136.594C175.548 136.116 175.648 135.619 175.648 135.102C175.648 134.42 175.483 133.781 175.153 133.185C174.83 132.588 174.381 132.105 173.807 131.736C173.239 131.366 172.591 131.182 171.864 131.182Z" fill="black"/>
<path d="M228.443 129.545V147H226.33V131.761H226.227L221.966 134.591V132.443L226.33 129.545H228.443ZM239.156 147.239C237.872 147.239 236.778 146.889 235.875 146.19C234.972 145.486 234.281 144.466 233.804 143.131C233.327 141.79 233.088 140.17 233.088 138.273C233.088 136.386 233.327 134.776 233.804 133.44C234.287 132.099 234.98 131.077 235.884 130.372C236.793 129.662 237.884 129.307 239.156 129.307C240.429 129.307 241.517 129.662 242.42 130.372C243.33 131.077 244.023 132.099 244.5 133.44C244.983 134.776 245.224 136.386 245.224 138.273C245.224 140.17 244.986 141.79 244.509 143.131C244.031 144.466 243.341 145.486 242.438 146.19C241.534 146.889 240.44 147.239 239.156 147.239ZM239.156 145.364C240.429 145.364 241.418 144.75 242.122 143.523C242.827 142.295 243.179 140.545 243.179 138.273C243.179 136.761 243.017 135.474 242.693 134.412C242.375 133.349 241.915 132.54 241.312 131.983C240.716 131.426 239.997 131.148 239.156 131.148C237.895 131.148 236.909 131.77 236.199 133.014C235.489 134.253 235.134 136.006 235.134 138.273C235.134 139.784 235.293 141.068 235.611 142.125C235.929 143.182 236.386 143.986 236.983 144.537C237.585 145.088 238.31 145.364 239.156 145.364Z" fill="black"/>
<path d="M292.443 129.545V147H290.33V131.761H290.227L285.966 134.591V132.443L290.33 129.545H292.443ZM303.599 129.545V147H301.486V131.761H301.384L297.122 134.591V132.443L301.486 129.545H303.599Z" fill="black"/>
<path d="M352.943 129.545V147H350.83V131.761H350.727L346.466 134.591V132.443L350.83 129.545H352.943ZM357.963 147V145.466L363.724 139.159C364.401 138.42 364.957 137.778 365.395 137.233C365.832 136.682 366.156 136.165 366.366 135.682C366.582 135.193 366.69 134.682 366.69 134.148C366.69 133.534 366.543 133.003 366.247 132.554C365.957 132.105 365.56 131.759 365.054 131.514C364.548 131.27 363.98 131.148 363.349 131.148C362.679 131.148 362.094 131.287 361.594 131.565C361.099 131.838 360.716 132.222 360.443 132.716C360.176 133.21 360.043 133.79 360.043 134.455H358.031C358.031 133.432 358.267 132.534 358.739 131.761C359.21 130.989 359.852 130.386 360.665 129.955C361.483 129.523 362.401 129.307 363.418 129.307C364.44 129.307 365.347 129.523 366.136 129.955C366.926 130.386 367.545 130.969 367.994 131.702C368.443 132.435 368.668 133.25 368.668 134.148C368.668 134.79 368.551 135.418 368.318 136.031C368.091 136.639 367.693 137.318 367.125 138.068C366.562 138.812 365.781 139.722 364.781 140.795L360.861 144.989V145.125H368.974V147H357.963Z" fill="black"/>
<path d="M414.443 129.545V147H412.33V131.761H412.227L407.966 134.591V132.443L412.33 129.545H414.443ZM425.361 147.239C424.236 147.239 423.233 147.045 422.352 146.659C421.477 146.273 420.781 145.736 420.264 145.048C419.753 144.355 419.474 143.551 419.429 142.636H421.577C421.622 143.199 421.815 143.685 422.156 144.094C422.497 144.497 422.943 144.81 423.494 145.031C424.045 145.253 424.656 145.364 425.327 145.364C426.077 145.364 426.741 145.233 427.321 144.972C427.901 144.71 428.355 144.347 428.685 143.881C429.014 143.415 429.179 142.875 429.179 142.261C429.179 141.619 429.02 141.054 428.702 140.565C428.384 140.071 427.918 139.685 427.304 139.406C426.69 139.128 425.94 138.989 425.054 138.989H423.656V137.114H425.054C425.747 137.114 426.355 136.989 426.878 136.739C427.406 136.489 427.818 136.136 428.114 135.682C428.415 135.227 428.565 134.693 428.565 134.08C428.565 133.489 428.435 132.974 428.173 132.537C427.912 132.099 427.543 131.759 427.065 131.514C426.594 131.27 426.037 131.148 425.395 131.148C424.793 131.148 424.224 131.259 423.69 131.48C423.162 131.696 422.73 132.011 422.395 132.426C422.06 132.835 421.878 133.33 421.849 133.909H419.804C419.838 132.994 420.114 132.193 420.631 131.506C421.148 130.812 421.824 130.273 422.659 129.886C423.5 129.5 424.423 129.307 425.429 129.307C426.509 129.307 427.435 129.526 428.207 129.963C428.98 130.395 429.574 130.966 429.989 131.676C430.403 132.386 430.611 133.153 430.611 133.977C430.611 134.96 430.352 135.798 429.835 136.491C429.324 137.185 428.628 137.665 427.747 137.932V138.068C428.849 138.25 429.71 138.719 430.33 139.474C430.949 140.224 431.259 141.153 431.259 142.261C431.259 143.21 431 144.062 430.483 144.818C429.972 145.568 429.273 146.159 428.386 146.591C427.5 147.023 426.491 147.239 425.361 147.239Z" fill="black"/>
<path d="M42.4432 184.545V202H40.3295V186.761H40.2273L35.9659 189.591V187.443L40.3295 184.545H42.4432ZM47.054 198.42V196.682L54.7244 184.545H55.9858V187.239H55.1335L49.3381 196.409V196.545H59.6676V198.42H47.054ZM55.2699 202V197.892V197.082V184.545H57.2812V202H55.2699Z" fill="black"/>
<path d="M104.943 184.545V202H102.83V186.761H102.727L98.4659 189.591V187.443L102.83 184.545H104.943ZM115.418 202.239C114.418 202.239 113.517 202.04 112.716 201.642C111.915 201.244 111.273 200.699 110.79 200.006C110.307 199.312 110.043 198.523 109.997 197.636H112.043C112.122 198.426 112.48 199.08 113.116 199.597C113.759 200.108 114.526 200.364 115.418 200.364C116.134 200.364 116.77 200.196 117.327 199.861C117.889 199.526 118.33 199.065 118.648 198.48C118.972 197.889 119.134 197.222 119.134 196.477C119.134 195.716 118.966 195.037 118.631 194.44C118.301 193.838 117.847 193.364 117.267 193.017C116.688 192.67 116.026 192.494 115.281 192.489C114.747 192.483 114.199 192.565 113.636 192.736C113.074 192.901 112.611 193.114 112.247 193.375L110.27 193.136L111.327 184.545H120.395V186.42H113.099L112.486 191.568H112.588C112.946 191.284 113.395 191.048 113.935 190.861C114.474 190.673 115.037 190.58 115.622 190.58C116.69 190.58 117.642 190.835 118.477 191.347C119.318 191.852 119.977 192.545 120.455 193.426C120.938 194.307 121.179 195.312 121.179 196.443C121.179 197.557 120.929 198.551 120.429 199.426C119.935 200.295 119.253 200.983 118.384 201.489C117.514 201.989 116.526 202.239 115.418 202.239Z" fill="black"/>
<path d="M166.443 184.545V202H164.33V186.761H164.227L159.966 189.591V187.443L164.33 184.545H166.443ZM177.259 202.239C176.543 202.227 175.827 202.091 175.111 201.83C174.395 201.568 173.741 201.128 173.151 200.509C172.56 199.884 172.085 199.04 171.727 197.977C171.369 196.909 171.19 195.568 171.19 193.955C171.19 192.409 171.335 191.04 171.625 189.847C171.915 188.648 172.335 187.639 172.886 186.821C173.438 185.997 174.102 185.372 174.881 184.946C175.665 184.52 176.548 184.307 177.531 184.307C178.509 184.307 179.378 184.503 180.139 184.895C180.906 185.281 181.531 185.821 182.014 186.514C182.497 187.207 182.81 188.006 182.952 188.909H180.872C180.679 188.125 180.304 187.474 179.747 186.957C179.19 186.44 178.452 186.182 177.531 186.182C176.179 186.182 175.114 186.77 174.335 187.946C173.563 189.122 173.173 190.773 173.168 192.898H173.304C173.622 192.415 174 192.003 174.438 191.662C174.881 191.315 175.369 191.048 175.903 190.861C176.438 190.673 177.003 190.58 177.599 190.58C178.599 190.58 179.514 190.83 180.344 191.33C181.173 191.824 181.838 192.509 182.338 193.384C182.838 194.253 183.088 195.25 183.088 196.375C183.088 197.455 182.847 198.443 182.364 199.341C181.881 200.233 181.202 200.943 180.327 201.472C179.457 201.994 178.435 202.25 177.259 202.239ZM177.259 200.364C177.974 200.364 178.616 200.185 179.185 199.827C179.759 199.469 180.21 198.989 180.54 198.386C180.875 197.784 181.043 197.114 181.043 196.375C181.043 195.653 180.881 194.997 180.557 194.406C180.239 193.81 179.798 193.335 179.236 192.983C178.679 192.631 178.043 192.455 177.327 192.455C176.787 192.455 176.284 192.562 175.818 192.778C175.352 192.989 174.943 193.278 174.591 193.648C174.244 194.017 173.972 194.44 173.773 194.918C173.574 195.389 173.474 195.886 173.474 196.409C173.474 197.102 173.636 197.75 173.96 198.352C174.29 198.955 174.739 199.44 175.307 199.81C175.881 200.179 176.531 200.364 177.259 200.364Z" fill="black"/>
<path d="M229.443 184.545V202H227.33V186.761H227.227L222.966 189.591V187.443L227.33 184.545H229.443ZM235.009 202L242.815 186.557V186.42H233.815V184.545H244.997V186.523L237.224 202H235.009Z" fill="black"/>
<path d="M290.943 184.545V202H288.83V186.761H288.727L284.466 189.591V187.443L288.83 184.545H290.943ZM301.554 202.239C300.384 202.239 299.349 202.031 298.452 201.616C297.56 201.196 296.864 200.619 296.364 199.886C295.864 199.148 295.616 198.307 295.622 197.364C295.616 196.625 295.761 195.943 296.057 195.318C296.352 194.687 296.756 194.162 297.267 193.741C297.784 193.315 298.361 193.045 298.997 192.932V192.83C298.162 192.614 297.497 192.145 297.003 191.423C296.509 190.696 296.264 189.869 296.27 188.943C296.264 188.057 296.489 187.264 296.943 186.565C297.398 185.866 298.023 185.315 298.818 184.912C299.619 184.509 300.531 184.307 301.554 184.307C302.565 184.307 303.469 184.509 304.264 184.912C305.06 185.315 305.685 185.866 306.139 186.565C306.599 187.264 306.832 188.057 306.838 188.943C306.832 189.869 306.58 190.696 306.08 191.423C305.585 192.145 304.929 192.614 304.111 192.83V192.932C304.741 193.045 305.31 193.315 305.815 193.741C306.321 194.162 306.724 194.687 307.026 195.318C307.327 195.943 307.48 196.625 307.486 197.364C307.48 198.307 307.224 199.148 306.719 199.886C306.219 200.619 305.523 201.196 304.631 201.616C303.744 202.031 302.719 202.239 301.554 202.239ZM301.554 200.364C302.344 200.364 303.026 200.236 303.599 199.98C304.173 199.724 304.616 199.364 304.929 198.898C305.241 198.432 305.401 197.886 305.406 197.261C305.401 196.602 305.23 196.02 304.895 195.514C304.56 195.009 304.102 194.611 303.523 194.321C302.949 194.031 302.293 193.886 301.554 193.886C300.81 193.886 300.145 194.031 299.56 194.321C298.98 194.611 298.523 195.009 298.188 195.514C297.858 196.02 297.696 196.602 297.702 197.261C297.696 197.886 297.847 198.432 298.153 198.898C298.466 199.364 298.912 199.724 299.491 199.98C300.071 200.236 300.759 200.364 301.554 200.364ZM301.554 192.08C302.179 192.08 302.733 191.955 303.216 191.705C303.705 191.455 304.088 191.105 304.366 190.656C304.645 190.207 304.787 189.682 304.793 189.08C304.787 188.489 304.648 187.974 304.375 187.537C304.102 187.094 303.724 186.753 303.241 186.514C302.759 186.27 302.196 186.148 301.554 186.148C300.901 186.148 300.33 186.27 299.841 186.514C299.352 186.753 298.974 187.094 298.707 187.537C298.44 187.974 298.31 188.489 298.315 189.08C298.31 189.682 298.443 190.207 298.716 190.656C298.994 191.105 299.378 191.455 299.866 191.705C300.355 191.955 300.918 192.08 301.554 192.08Z" fill="black"/>
<path d="M352.443 184.545V202H350.33V186.761H350.227L345.966 189.591V187.443L350.33 184.545H352.443ZM363.02 184.307C363.736 184.312 364.452 184.449 365.168 184.716C365.884 184.983 366.537 185.426 367.128 186.045C367.719 186.659 368.193 187.497 368.551 188.56C368.909 189.622 369.088 190.955 369.088 192.557C369.088 194.108 368.94 195.486 368.645 196.69C368.355 197.889 367.935 198.901 367.384 199.724C366.838 200.548 366.173 201.173 365.389 201.599C364.611 202.026 363.73 202.239 362.747 202.239C361.77 202.239 360.898 202.045 360.131 201.659C359.369 201.267 358.744 200.724 358.256 200.031C357.773 199.332 357.463 198.523 357.327 197.602H359.406C359.594 198.403 359.966 199.065 360.523 199.588C361.085 200.105 361.827 200.364 362.747 200.364C364.094 200.364 365.156 199.776 365.935 198.599C366.719 197.423 367.111 195.761 367.111 193.614H366.974C366.656 194.091 366.278 194.503 365.841 194.849C365.403 195.196 364.918 195.463 364.384 195.651C363.849 195.838 363.281 195.932 362.679 195.932C361.679 195.932 360.761 195.685 359.926 195.19C359.097 194.69 358.432 194.006 357.932 193.136C357.438 192.261 357.19 191.261 357.19 190.136C357.19 189.068 357.429 188.091 357.906 187.205C358.389 186.312 359.065 185.602 359.935 185.074C360.81 184.545 361.838 184.29 363.02 184.307ZM363.02 186.182C362.304 186.182 361.659 186.361 361.085 186.719C360.517 187.071 360.065 187.548 359.73 188.151C359.401 188.747 359.236 189.409 359.236 190.136C359.236 190.864 359.395 191.526 359.713 192.122C360.037 192.713 360.477 193.185 361.034 193.537C361.597 193.884 362.236 194.057 362.952 194.057C363.491 194.057 363.994 193.952 364.46 193.741C364.926 193.526 365.332 193.233 365.679 192.864C366.031 192.489 366.307 192.065 366.506 191.594C366.705 191.116 366.804 190.619 366.804 190.102C366.804 189.42 366.639 188.781 366.31 188.185C365.986 187.588 365.537 187.105 364.963 186.736C364.395 186.366 363.747 186.182 363.02 186.182Z" fill="black"/>
<path d="M406.807 202V200.466L412.568 194.159C413.244 193.42 413.801 192.778 414.239 192.233C414.676 191.682 415 191.165 415.21 190.682C415.426 190.193 415.534 189.682 415.534 189.148C415.534 188.534 415.386 188.003 415.091 187.554C414.801 187.105 414.403 186.759 413.898 186.514C413.392 186.27 412.824 186.148 412.193 186.148C411.523 186.148 410.938 186.287 410.438 186.565C409.943 186.838 409.56 187.222 409.287 187.716C409.02 188.21 408.886 188.79 408.886 189.455H406.875C406.875 188.432 407.111 187.534 407.582 186.761C408.054 185.989 408.696 185.386 409.509 184.955C410.327 184.523 411.244 184.307 412.261 184.307C413.284 184.307 414.19 184.523 414.98 184.955C415.77 185.386 416.389 185.969 416.838 186.702C417.287 187.435 417.511 188.25 417.511 189.148C417.511 189.79 417.395 190.418 417.162 191.031C416.935 191.639 416.537 192.318 415.969 193.068C415.406 193.812 414.625 194.722 413.625 195.795L409.705 199.989V200.125H417.818V202H406.807ZM427.031 202.239C425.747 202.239 424.653 201.889 423.75 201.19C422.847 200.486 422.156 199.466 421.679 198.131C421.202 196.79 420.963 195.17 420.963 193.273C420.963 191.386 421.202 189.776 421.679 188.44C422.162 187.099 422.855 186.077 423.759 185.372C424.668 184.662 425.759 184.307 427.031 184.307C428.304 184.307 429.392 184.662 430.295 185.372C431.205 186.077 431.898 187.099 432.375 188.44C432.858 189.776 433.099 191.386 433.099 193.273C433.099 195.17 432.861 196.79 432.384 198.131C431.906 199.466 431.216 200.486 430.312 201.19C429.409 201.889 428.315 202.239 427.031 202.239ZM427.031 200.364C428.304 200.364 429.293 199.75 429.997 198.523C430.702 197.295 431.054 195.545 431.054 193.273C431.054 191.761 430.892 190.474 430.568 189.412C430.25 188.349 429.79 187.54 429.188 186.983C428.591 186.426 427.872 186.148 427.031 186.148C425.77 186.148 424.784 186.77 424.074 188.014C423.364 189.253 423.009 191.006 423.009 193.273C423.009 194.784 423.168 196.068 423.486 197.125C423.804 198.182 424.261 198.986 424.858 199.537C425.46 200.088 426.185 200.364 427.031 200.364Z" fill="black"/>
<path d="M36.8068 257V255.466L42.5682 249.159C43.2443 248.42 43.8011 247.778 44.2386 247.233C44.6761 246.682 45 246.165 45.2102 245.682C45.4261 245.193 45.5341 244.682 45.5341 244.148C45.5341 243.534 45.3864 243.003 45.0909 242.554C44.8011 242.105 44.4034 241.759 43.8977 241.514C43.392 241.27 42.8239 241.148 42.1932 241.148C41.5227 241.148 40.9375 241.287 40.4375 241.565C39.9432 241.838 39.5597 242.222 39.2869 242.716C39.0199 243.21 38.8864 243.79 38.8864 244.455H36.875C36.875 243.432 37.1108 242.534 37.5824 241.761C38.054 240.989 38.696 240.386 39.5085 239.955C40.3267 239.523 41.2443 239.307 42.2614 239.307C43.2841 239.307 44.1903 239.523 44.9801 239.955C45.7699 240.386 46.3892 240.969 46.8381 241.702C47.2869 242.435 47.5114 243.25 47.5114 244.148C47.5114 244.79 47.3949 245.418 47.1619 246.031C46.9347 246.639 46.5369 247.318 45.9688 248.068C45.4062 248.812 44.625 249.722 43.625 250.795L39.7045 254.989V255.125H47.8182V257H36.8068ZM57.4744 239.545V257H55.3608V241.761H55.2585L50.9972 244.591V242.443L55.3608 239.545H57.4744Z" fill="black"/>
<path d="M96.8068 257V255.466L102.568 249.159C103.244 248.42 103.801 247.778 104.239 247.233C104.676 246.682 105 246.165 105.21 245.682C105.426 245.193 105.534 244.682 105.534 244.148C105.534 243.534 105.386 243.003 105.091 242.554C104.801 242.105 104.403 241.759 103.898 241.514C103.392 241.27 102.824 241.148 102.193 241.148C101.523 241.148 100.938 241.287 100.438 241.565C99.9432 241.838 99.5597 242.222 99.2869 242.716C99.0199 243.21 98.8864 243.79 98.8864 244.455H96.875C96.875 243.432 97.1108 242.534 97.5824 241.761C98.054 240.989 98.696 240.386 99.5085 239.955C100.327 239.523 101.244 239.307 102.261 239.307C103.284 239.307 104.19 239.523 104.98 239.955C105.77 240.386 106.389 240.969 106.838 241.702C107.287 242.435 107.511 243.25 107.511 244.148C107.511 244.79 107.395 245.418 107.162 246.031C106.935 246.639 106.537 247.318 105.969 248.068C105.406 248.812 104.625 249.722 103.625 250.795L99.7045 254.989V255.125H107.818V257H96.8068ZM111.338 257V255.466L117.099 249.159C117.776 248.42 118.332 247.778 118.77 247.233C119.207 246.682 119.531 246.165 119.741 245.682C119.957 245.193 120.065 244.682 120.065 244.148C120.065 243.534 119.918 243.003 119.622 242.554C119.332 242.105 118.935 241.759 118.429 241.514C117.923 241.27 117.355 241.148 116.724 241.148C116.054 241.148 115.469 241.287 114.969 241.565C114.474 241.838 114.091 242.222 113.818 242.716C113.551 243.21 113.418 243.79 113.418 244.455H111.406C111.406 243.432 111.642 242.534 112.114 241.761C112.585 240.989 113.227 240.386 114.04 239.955C114.858 239.523 115.776 239.307 116.793 239.307C117.815 239.307 118.722 239.523 119.511 239.955C120.301 240.386 120.92 240.969 121.369 241.702C121.818 242.435 122.043 243.25 122.043 244.148C122.043 244.79 121.926 245.418 121.693 246.031C121.466 246.639 121.068 247.318 120.5 248.068C119.938 248.812 119.156 249.722 118.156 250.795L114.236 254.989V255.125H122.349V257H111.338Z" fill="black"/>
<path d="M158.807 257V255.466L164.568 249.159C165.244 248.42 165.801 247.778 166.239 247.233C166.676 246.682 167 246.165 167.21 245.682C167.426 245.193 167.534 244.682 167.534 244.148C167.534 243.534 167.386 243.003 167.091 242.554C166.801 242.105 166.403 241.759 165.898 241.514C165.392 241.27 164.824 241.148 164.193 241.148C163.523 241.148 162.938 241.287 162.438 241.565C161.943 241.838 161.56 242.222 161.287 242.716C161.02 243.21 160.886 243.79 160.886 244.455H158.875C158.875 243.432 159.111 242.534 159.582 241.761C160.054 240.989 160.696 240.386 161.509 239.955C162.327 239.523 163.244 239.307 164.261 239.307C165.284 239.307 166.19 239.523 166.98 239.955C167.77 240.386 168.389 240.969 168.838 241.702C169.287 242.435 169.511 243.25 169.511 244.148C169.511 244.79 169.395 245.418 169.162 246.031C168.935 246.639 168.537 247.318 167.969 248.068C167.406 248.812 166.625 249.722 165.625 250.795L161.705 254.989V255.125H169.818V257H158.807ZM179.236 257.239C178.111 257.239 177.108 257.045 176.227 256.659C175.352 256.273 174.656 255.736 174.139 255.048C173.628 254.355 173.349 253.551 173.304 252.636H175.452C175.497 253.199 175.69 253.685 176.031 254.094C176.372 254.497 176.818 254.81 177.369 255.031C177.92 255.253 178.531 255.364 179.202 255.364C179.952 255.364 180.616 255.233 181.196 254.972C181.776 254.71 182.23 254.347 182.56 253.881C182.889 253.415 183.054 252.875 183.054 252.261C183.054 251.619 182.895 251.054 182.577 250.565C182.259 250.071 181.793 249.685 181.179 249.406C180.565 249.128 179.815 248.989 178.929 248.989H177.531V247.114H178.929C179.622 247.114 180.23 246.989 180.753 246.739C181.281 246.489 181.693 246.136 181.989 245.682C182.29 245.227 182.44 244.693 182.44 244.08C182.44 243.489 182.31 242.974 182.048 242.537C181.787 242.099 181.418 241.759 180.94 241.514C180.469 241.27 179.912 241.148 179.27 241.148C178.668 241.148 178.099 241.259 177.565 241.48C177.037 241.696 176.605 242.011 176.27 242.426C175.935 242.835 175.753 243.33 175.724 243.909H173.679C173.713 242.994 173.989 242.193 174.506 241.506C175.023 240.812 175.699 240.273 176.534 239.886C177.375 239.5 178.298 239.307 179.304 239.307C180.384 239.307 181.31 239.526 182.082 239.963C182.855 240.395 183.449 240.966 183.864 241.676C184.278 242.386 184.486 243.153 184.486 243.977C184.486 244.96 184.227 245.798 183.71 246.491C183.199 247.185 182.503 247.665 181.622 247.932V248.068C182.724 248.25 183.585 248.719 184.205 249.474C184.824 250.224 185.134 251.153 185.134 252.261C185.134 253.21 184.875 254.062 184.358 254.818C183.847 255.568 183.148 256.159 182.261 256.591C181.375 257.023 180.366 257.239 179.236 257.239Z" fill="black"/>
<path d="M220.807 257V255.466L226.568 249.159C227.244 248.42 227.801 247.778 228.239 247.233C228.676 246.682 229 246.165 229.21 245.682C229.426 245.193 229.534 244.682 229.534 244.148C229.534 243.534 229.386 243.003 229.091 242.554C228.801 242.105 228.403 241.759 227.898 241.514C227.392 241.27 226.824 241.148 226.193 241.148C225.523 241.148 224.938 241.287 224.438 241.565C223.943 241.838 223.56 242.222 223.287 242.716C223.02 243.21 222.886 243.79 222.886 244.455H220.875C220.875 243.432 221.111 242.534 221.582 241.761C222.054 240.989 222.696 240.386 223.509 239.955C224.327 239.523 225.244 239.307 226.261 239.307C227.284 239.307 228.19 239.523 228.98 239.955C229.77 240.386 230.389 240.969 230.838 241.702C231.287 242.435 231.511 243.25 231.511 244.148C231.511 244.79 231.395 245.418 231.162 246.031C230.935 246.639 230.537 247.318 229.969 248.068C229.406 248.812 228.625 249.722 227.625 250.795L223.705 254.989V255.125H231.818V257H220.807ZM234.554 253.42V251.682L242.224 239.545H243.486V242.239H242.634L236.838 251.409V251.545H247.168V253.42H234.554ZM242.77 257V252.892V252.082V239.545H244.781V257H242.77Z" fill="black"/>
<path d="M282.807 257V255.466L288.568 249.159C289.244 248.42 289.801 247.778 290.239 247.233C290.676 246.682 291 246.165 291.21 245.682C291.426 245.193 291.534 244.682 291.534 244.148C291.534 243.534 291.386 243.003 291.091 242.554C290.801 242.105 290.403 241.759 289.898 241.514C289.392 241.27 288.824 241.148 288.193 241.148C287.523 241.148 286.938 241.287 286.438 241.565C285.943 241.838 285.56 242.222 285.287 242.716C285.02 243.21 284.886 243.79 284.886 244.455H282.875C282.875 243.432 283.111 242.534 283.582 241.761C284.054 240.989 284.696 240.386 285.509 239.955C286.327 239.523 287.244 239.307 288.261 239.307C289.284 239.307 290.19 239.523 290.98 239.955C291.77 240.386 292.389 240.969 292.838 241.702C293.287 242.435 293.511 243.25 293.511 244.148C293.511 244.79 293.395 245.418 293.162 246.031C292.935 246.639 292.537 247.318 291.969 248.068C291.406 248.812 290.625 249.722 289.625 250.795L285.705 254.989V255.125H293.818V257H282.807ZM302.793 257.239C301.793 257.239 300.892 257.04 300.091 256.642C299.29 256.244 298.648 255.699 298.165 255.006C297.682 254.312 297.418 253.523 297.372 252.636H299.418C299.497 253.426 299.855 254.08 300.491 254.597C301.134 255.108 301.901 255.364 302.793 255.364C303.509 255.364 304.145 255.196 304.702 254.861C305.264 254.526 305.705 254.065 306.023 253.48C306.347 252.889 306.509 252.222 306.509 251.477C306.509 250.716 306.341 250.037 306.006 249.44C305.676 248.838 305.222 248.364 304.642 248.017C304.063 247.67 303.401 247.494 302.656 247.489C302.122 247.483 301.574 247.565 301.011 247.736C300.449 247.901 299.986 248.114 299.622 248.375L297.645 248.136L298.702 239.545H307.77V241.42H300.474L299.861 246.568H299.963C300.321 246.284 300.77 246.048 301.31 245.861C301.849 245.673 302.412 245.58 302.997 245.58C304.065 245.58 305.017 245.835 305.852 246.347C306.693 246.852 307.352 247.545 307.83 248.426C308.312 249.307 308.554 250.312 308.554 251.443C308.554 252.557 308.304 253.551 307.804 254.426C307.31 255.295 306.628 255.983 305.759 256.489C304.889 256.989 303.901 257.239 302.793 257.239Z" fill="black"/>
<path d="M344.807 257V255.466L350.568 249.159C351.244 248.42 351.801 247.778 352.239 247.233C352.676 246.682 353 246.165 353.21 245.682C353.426 245.193 353.534 244.682 353.534 244.148C353.534 243.534 353.386 243.003 353.091 242.554C352.801 242.105 352.403 241.759 351.898 241.514C351.392 241.27 350.824 241.148 350.193 241.148C349.523 241.148 348.938 241.287 348.438 241.565C347.943 241.838 347.56 242.222 347.287 242.716C347.02 243.21 346.886 243.79 346.886 244.455H344.875C344.875 243.432 345.111 242.534 345.582 241.761C346.054 240.989 346.696 240.386 347.509 239.955C348.327 239.523 349.244 239.307 350.261 239.307C351.284 239.307 352.19 239.523 352.98 239.955C353.77 240.386 354.389 240.969 354.838 241.702C355.287 242.435 355.511 243.25 355.511 244.148C355.511 244.79 355.395 245.418 355.162 246.031C354.935 246.639 354.537 247.318 353.969 248.068C353.406 248.812 352.625 249.722 351.625 250.795L347.705 254.989V255.125H355.818V257H344.807ZM365.134 257.239C364.418 257.227 363.702 257.091 362.986 256.83C362.27 256.568 361.616 256.128 361.026 255.509C360.435 254.884 359.96 254.04 359.602 252.977C359.244 251.909 359.065 250.568 359.065 248.955C359.065 247.409 359.21 246.04 359.5 244.847C359.79 243.648 360.21 242.639 360.761 241.821C361.313 240.997 361.977 240.372 362.756 239.946C363.54 239.52 364.423 239.307 365.406 239.307C366.384 239.307 367.253 239.503 368.014 239.895C368.781 240.281 369.406 240.821 369.889 241.514C370.372 242.207 370.685 243.006 370.827 243.909H368.747C368.554 243.125 368.179 242.474 367.622 241.957C367.065 241.44 366.327 241.182 365.406 241.182C364.054 241.182 362.989 241.77 362.21 242.946C361.438 244.122 361.048 245.773 361.043 247.898H361.179C361.497 247.415 361.875 247.003 362.312 246.662C362.756 246.315 363.244 246.048 363.778 245.861C364.313 245.673 364.878 245.58 365.474 245.58C366.474 245.58 367.389 245.83 368.219 246.33C369.048 246.824 369.713 247.509 370.213 248.384C370.713 249.253 370.963 250.25 370.963 251.375C370.963 252.455 370.722 253.443 370.239 254.341C369.756 255.233 369.077 255.943 368.202 256.472C367.332 256.994 366.31 257.25 365.134 257.239ZM365.134 255.364C365.849 255.364 366.491 255.185 367.06 254.827C367.634 254.469 368.085 253.989 368.415 253.386C368.75 252.784 368.918 252.114 368.918 251.375C368.918 250.653 368.756 249.997 368.432 249.406C368.114 248.81 367.673 248.335 367.111 247.983C366.554 247.631 365.918 247.455 365.202 247.455C364.662 247.455 364.159 247.562 363.693 247.778C363.227 247.989 362.818 248.278 362.466 248.648C362.119 249.017 361.847 249.44 361.648 249.918C361.449 250.389 361.349 250.886 361.349 251.409C361.349 252.102 361.511 252.75 361.835 253.352C362.165 253.955 362.614 254.44 363.182 254.81C363.756 255.179 364.406 255.364 365.134 255.364Z" fill="black"/>
<path d="M407.307 257V255.466L413.068 249.159C413.744 248.42 414.301 247.778 414.739 247.233C415.176 246.682 415.5 246.165 415.71 245.682C415.926 245.193 416.034 244.682 416.034 244.148C416.034 243.534 415.886 243.003 415.591 242.554C415.301 242.105 414.903 241.759 414.398 241.514C413.892 241.27 413.324 241.148 412.693 241.148C412.023 241.148 411.438 241.287 410.938 241.565C410.443 241.838 410.06 242.222 409.787 242.716C409.52 243.21 409.386 243.79 409.386 244.455H407.375C407.375 243.432 407.611 242.534 408.082 241.761C408.554 240.989 409.196 240.386 410.009 239.955C410.827 239.523 411.744 239.307 412.761 239.307C413.784 239.307 414.69 239.523 415.48 239.955C416.27 240.386 416.889 240.969 417.338 241.702C417.787 242.435 418.011 243.25 418.011 244.148C418.011 244.79 417.895 245.418 417.662 246.031C417.435 246.639 417.037 247.318 416.469 248.068C415.906 248.812 415.125 249.722 414.125 250.795L410.205 254.989V255.125H418.318V257H407.307ZM422.384 257L430.19 241.557V241.42H421.19V239.545H432.372V241.523L424.599 257H422.384Z" fill="black"/>
<path d="M34.8068 312V310.466L40.5682 304.159C41.2443 303.42 41.8011 302.778 42.2386 302.233C42.6761 301.682 43 301.165 43.2102 300.682C43.4261 300.193 43.5341 299.682 43.5341 299.148C43.5341 298.534 43.3864 298.003 43.0909 297.554C42.8011 297.105 42.4034 296.759 41.8977 296.514C41.392 296.27 40.8239 296.148 40.1932 296.148C39.5227 296.148 38.9375 296.287 38.4375 296.565C37.9432 296.838 37.5597 297.222 37.2869 297.716C37.0199 298.21 36.8864 298.79 36.8864 299.455H34.875C34.875 298.432 35.1108 297.534 35.5824 296.761C36.054 295.989 36.696 295.386 37.5085 294.955C38.3267 294.523 39.2443 294.307 40.2614 294.307C41.2841 294.307 42.1903 294.523 42.9801 294.955C43.7699 295.386 44.3892 295.969 44.8381 296.702C45.2869 297.435 45.5114 298.25 45.5114 299.148C45.5114 299.79 45.3949 300.418 45.1619 301.031C44.9347 301.639 44.5369 302.318 43.9688 303.068C43.4062 303.812 42.625 304.722 41.625 305.795L37.7045 309.989V310.125H45.8182V312H34.8068ZM54.929 312.239C53.7585 312.239 52.7244 312.031 51.8267 311.616C50.9347 311.196 50.2386 310.619 49.7386 309.886C49.2386 309.148 48.9915 308.307 48.9972 307.364C48.9915 306.625 49.1364 305.943 49.4318 305.318C49.7273 304.687 50.1307 304.162 50.642 303.741C51.1591 303.315 51.7358 303.045 52.3722 302.932V302.83C51.5369 302.614 50.8722 302.145 50.3778 301.423C49.8835 300.696 49.6392 299.869 49.6449 298.943C49.6392 298.057 49.8636 297.264 50.3182 296.565C50.7727 295.866 51.3977 295.315 52.1932 294.912C52.9943 294.509 53.9063 294.307 54.929 294.307C55.9403 294.307 56.8438 294.509 57.6392 294.912C58.4347 295.315 59.0597 295.866 59.5142 296.565C59.9744 297.264 60.2074 298.057 60.2131 298.943C60.2074 299.869 59.9545 300.696 59.4545 301.423C58.9602 302.145 58.304 302.614 57.4858 302.83V302.932C58.1165 303.045 58.6847 303.315 59.1903 303.741C59.696 304.162 60.0994 304.687 60.4006 305.318C60.7017 305.943 60.8551 306.625 60.8608 307.364C60.8551 308.307 60.5994 309.148 60.0938 309.886C59.5938 310.619 58.8977 311.196 58.0057 311.616C57.1193 312.031 56.0938 312.239 54.929 312.239ZM54.929 310.364C55.7188 310.364 56.4006 310.236 56.9744 309.98C57.5483 309.724 57.9915 309.364 58.304 308.898C58.6165 308.432 58.7756 307.886 58.7812 307.261C58.7756 306.602 58.6051 306.02 58.2699 305.514C57.9347 305.009 57.4773 304.611 56.8977 304.321C56.3239 304.031 55.6676 303.886 54.929 303.886C54.1847 303.886 53.5199 304.031 52.9347 304.321C52.3551 304.611 51.8977 305.009 51.5625 305.514C51.233 306.02 51.071 306.602 51.0767 307.261C51.071 307.886 51.2216 308.432 51.5284 308.898C51.8409 309.364 52.2869 309.724 52.8665 309.98C53.446 310.236 54.1335 310.364 54.929 310.364ZM54.929 302.08C55.554 302.08 56.108 301.955 56.5909 301.705C57.0795 301.455 57.4631 301.105 57.7415 300.656C58.0199 300.207 58.1619 299.682 58.1676 299.08C58.1619 298.489 58.0227 297.974 57.75 297.537C57.4773 297.094 57.0994 296.753 56.6165 296.514C56.1335 296.27 55.571 296.148 54.929 296.148C54.2756 296.148 53.7045 296.27 53.2159 296.514C52.7273 296.753 52.3494 297.094 52.0824 297.537C51.8153 297.974 51.6847 298.489 51.6903 299.08C51.6847 299.682 51.8182 300.207 52.0909 300.656C52.3693 301.105 52.7528 301.455 53.2415 301.705C53.7301 301.955 54.2926 302.08 54.929 302.08Z" fill="black"/>
<path d="M96.8068 312V310.466L102.568 304.159C103.244 303.42 103.801 302.778 104.239 302.233C104.676 301.682 105 301.165 105.21 300.682C105.426 300.193 105.534 299.682 105.534 299.148C105.534 298.534 105.386 298.003 105.091 297.554C104.801 297.105 104.403 296.759 103.898 296.514C103.392 296.27 102.824 296.148 102.193 296.148C101.523 296.148 100.938 296.287 100.438 296.565C99.9432 296.838 99.5597 297.222 99.2869 297.716C99.0199 298.21 98.8864 298.79 98.8864 299.455H96.875C96.875 298.432 97.1108 297.534 97.5824 296.761C98.054 295.989 98.696 295.386 99.5085 294.955C100.327 294.523 101.244 294.307 102.261 294.307C103.284 294.307 104.19 294.523 104.98 294.955C105.77 295.386 106.389 295.969 106.838 296.702C107.287 297.435 107.511 298.25 107.511 299.148C107.511 299.79 107.395 300.418 107.162 301.031C106.935 301.639 106.537 302.318 105.969 303.068C105.406 303.812 104.625 304.722 103.625 305.795L99.7045 309.989V310.125H107.818V312H96.8068ZM116.895 294.307C117.611 294.312 118.327 294.449 119.043 294.716C119.759 294.983 120.412 295.426 121.003 296.045C121.594 296.659 122.068 297.497 122.426 298.56C122.784 299.622 122.963 300.955 122.963 302.557C122.963 304.108 122.815 305.486 122.52 306.69C122.23 307.889 121.81 308.901 121.259 309.724C120.713 310.548 120.048 311.173 119.264 311.599C118.486 312.026 117.605 312.239 116.622 312.239C115.645 312.239 114.773 312.045 114.006 311.659C113.244 311.267 112.619 310.724 112.131 310.031C111.648 309.332 111.338 308.523 111.202 307.602H113.281C113.469 308.403 113.841 309.065 114.398 309.588C114.96 310.105 115.702 310.364 116.622 310.364C117.969 310.364 119.031 309.776 119.81 308.599C120.594 307.423 120.986 305.761 120.986 303.614H120.849C120.531 304.091 120.153 304.503 119.716 304.849C119.278 305.196 118.793 305.463 118.259 305.651C117.724 305.838 117.156 305.932 116.554 305.932C115.554 305.932 114.636 305.685 113.801 305.19C112.972 304.69 112.307 304.006 111.807 303.136C111.312 302.261 111.065 301.261 111.065 300.136C111.065 299.068 111.304 298.091 111.781 297.205C112.264 296.312 112.94 295.602 113.81 295.074C114.685 294.545 115.713 294.29 116.895 294.307ZM116.895 296.182C116.179 296.182 115.534 296.361 114.96 296.719C114.392 297.071 113.94 297.548 113.605 298.151C113.276 298.747 113.111 299.409 113.111 300.136C113.111 300.864 113.27 301.526 113.588 302.122C113.912 302.713 114.352 303.185 114.909 303.537C115.472 303.884 116.111 304.057 116.827 304.057C117.366 304.057 117.869 303.952 118.335 303.741C118.801 303.526 119.207 303.233 119.554 302.864C119.906 302.489 120.182 302.065 120.381 301.594C120.58 301.116 120.679 300.619 120.679 300.102C120.679 299.42 120.514 298.781 120.185 298.185C119.861 297.588 119.412 297.105 118.838 296.736C118.27 296.366 117.622 296.182 116.895 296.182Z" fill="black"/>
<path d="M164.205 312.239C163.08 312.239 162.077 312.045 161.196 311.659C160.321 311.273 159.625 310.736 159.108 310.048C158.597 309.355 158.318 308.551 158.273 307.636H160.42C160.466 308.199 160.659 308.685 161 309.094C161.341 309.497 161.787 309.81 162.338 310.031C162.889 310.253 163.5 310.364 164.17 310.364C164.92 310.364 165.585 310.233 166.165 309.972C166.744 309.71 167.199 309.347 167.528 308.881C167.858 308.415 168.023 307.875 168.023 307.261C168.023 306.619 167.864 306.054 167.545 305.565C167.227 305.071 166.761 304.685 166.148 304.406C165.534 304.128 164.784 303.989 163.898 303.989H162.5V302.114H163.898C164.591 302.114 165.199 301.989 165.722 301.739C166.25 301.489 166.662 301.136 166.957 300.682C167.259 300.227 167.409 299.693 167.409 299.08C167.409 298.489 167.278 297.974 167.017 297.537C166.756 297.099 166.386 296.759 165.909 296.514C165.438 296.27 164.881 296.148 164.239 296.148C163.636 296.148 163.068 296.259 162.534 296.48C162.006 296.696 161.574 297.011 161.239 297.426C160.903 297.835 160.722 298.33 160.693 298.909H158.648C158.682 297.994 158.957 297.193 159.474 296.506C159.991 295.812 160.668 295.273 161.503 294.886C162.344 294.5 163.267 294.307 164.273 294.307C165.352 294.307 166.278 294.526 167.051 294.963C167.824 295.395 168.418 295.966 168.832 296.676C169.247 297.386 169.455 298.153 169.455 298.977C169.455 299.96 169.196 300.798 168.679 301.491C168.168 302.185 167.472 302.665 166.591 302.932V303.068C167.693 303.25 168.554 303.719 169.173 304.474C169.793 305.224 170.102 306.153 170.102 307.261C170.102 308.21 169.844 309.062 169.327 309.818C168.815 310.568 168.116 311.159 167.23 311.591C166.344 312.023 165.335 312.239 164.205 312.239ZM179.281 312.239C177.997 312.239 176.903 311.889 176 311.19C175.097 310.486 174.406 309.466 173.929 308.131C173.452 306.79 173.213 305.17 173.213 303.273C173.213 301.386 173.452 299.776 173.929 298.44C174.412 297.099 175.105 296.077 176.009 295.372C176.918 294.662 178.009 294.307 179.281 294.307C180.554 294.307 181.642 294.662 182.545 295.372C183.455 296.077 184.148 297.099 184.625 298.44C185.108 299.776 185.349 301.386 185.349 303.273C185.349 305.17 185.111 306.79 184.634 308.131C184.156 309.466 183.466 310.486 182.562 311.19C181.659 311.889 180.565 312.239 179.281 312.239ZM179.281 310.364C180.554 310.364 181.543 309.75 182.247 308.523C182.952 307.295 183.304 305.545 183.304 303.273C183.304 301.761 183.142 300.474 182.818 299.412C182.5 298.349 182.04 297.54 181.438 296.983C180.841 296.426 180.122 296.148 179.281 296.148C178.02 296.148 177.034 296.77 176.324 298.014C175.614 299.253 175.259 301.006 175.259 303.273C175.259 304.784 175.418 306.068 175.736 307.125C176.054 308.182 176.511 308.986 177.108 309.537C177.71 310.088 178.435 310.364 179.281 310.364Z" fill="black"/>
<path d="M228.205 312.239C227.08 312.239 226.077 312.045 225.196 311.659C224.321 311.273 223.625 310.736 223.108 310.048C222.597 309.355 222.318 308.551 222.273 307.636H224.42C224.466 308.199 224.659 308.685 225 309.094C225.341 309.497 225.787 309.81 226.338 310.031C226.889 310.253 227.5 310.364 228.17 310.364C228.92 310.364 229.585 310.233 230.165 309.972C230.744 309.71 231.199 309.347 231.528 308.881C231.858 308.415 232.023 307.875 232.023 307.261C232.023 306.619 231.864 306.054 231.545 305.565C231.227 305.071 230.761 304.685 230.148 304.406C229.534 304.128 228.784 303.989 227.898 303.989H226.5V302.114H227.898C228.591 302.114 229.199 301.989 229.722 301.739C230.25 301.489 230.662 301.136 230.957 300.682C231.259 300.227 231.409 299.693 231.409 299.08C231.409 298.489 231.278 297.974 231.017 297.537C230.756 297.099 230.386 296.759 229.909 296.514C229.438 296.27 228.881 296.148 228.239 296.148C227.636 296.148 227.068 296.259 226.534 296.48C226.006 296.696 225.574 297.011 225.239 297.426C224.903 297.835 224.722 298.33 224.693 298.909H222.648C222.682 297.994 222.957 297.193 223.474 296.506C223.991 295.812 224.668 295.273 225.503 294.886C226.344 294.5 227.267 294.307 228.273 294.307C229.352 294.307 230.278 294.526 231.051 294.963C231.824 295.395 232.418 295.966 232.832 296.676C233.247 297.386 233.455 298.153 233.455 298.977C233.455 299.96 233.196 300.798 232.679 301.491C232.168 302.185 231.472 302.665 230.591 302.932V303.068C231.693 303.25 232.554 303.719 233.173 304.474C233.793 305.224 234.102 306.153 234.102 307.261C234.102 308.21 233.844 309.062 233.327 309.818C232.815 310.568 232.116 311.159 231.23 311.591C230.344 312.023 229.335 312.239 228.205 312.239ZM243.724 294.545V312H241.611V296.761H241.509L237.247 299.591V297.443L241.611 294.545H243.724Z" fill="black"/>
<rect x="0.5" y="0.5" width="457" height="343" rx="3.5" stroke="#242424"/>
</svg>
